<?xml version="1.0" standalone="no"?>
<!DOCTYPE svg PUBLIC "-//W3C//DTD SVG 20010904//EN"
 "http://www.w3.org/TR/2001/REC-SVG-20010904/DTD/svg10.dtd">
<svg version="1.0" xmlns="http://www.w3.org/2000/svg"
 width="400.000000pt" height="400.000000pt" viewBox="0 0 400.000000 400.000000"
 preserveAspectRatio="xMidYMid meet">
<metadata>
Created by potrace 1.11, written by Peter Selinger 2001-2013
</metadata>
<g transform="translate(0.000000,400.000000) scale(0.100000,-0.100000)"
fill="#000000" stroke="none">
<path d="M1058 2693 c-130 -130 -235 -239 -233 -242 2 -4 575 -6 1273 -6 1127
0 1269 -2 1259 -15 -7 -8 -312 -316 -679 -685 -367 -368 -665 -671 -663 -673
2 -2 447 -5 989 -6 688 -2 986 1 989 8 3 10 1 461 -2 477 0 4 -169 7 -373 7
-205 0 -386 1 -402 1 -25 1 15 44 375 405 l404 405 0 280 0 281 -1350 0 -1351
0 -236 -237z"/>
<path d="M493 2118 c-72 -73 -213 -216 -312 -318 l-180 -185 -1 -272 c0 -253
1 -273 18 -274 20 0 1626 0 1659 0 14 1 101 81 267 247 135 136 246 247 246
248 0 0 -352 0 -782 -1 l-782 -3 98 99 97 98 781 -1 780 -1 242 243 c132 133
243 245 245 247 2 3 -502 5 -1120 5 l-1125 0 -131 -132z"/>
</g>
</svg>
